<svg version="1.1" viewBox="0.0 0.0 816.0 240.0" fill="none" stroke="none" stroke-linecap="square" stroke-miterlimit="10" xmlns:xlink="http://www.w3.org/1999/xlink" xmlns="http://www.w3.org/2000/svg"><clipPath id="g18c2e207b87_0_2.0"><path d="m0 0l816.0 0l0 240.0l-816.0 0l0 -240.0z" clip-rule="nonzero"/></clipPath><g clip-path="url(#g18c2e207b87_0_2.0)"><path fill="#000000" fill-opacity="0.0" d="m0 0l816.0 0l0 240.0l-816.0 0z" fill-rule="evenodd"/><path fill="#000000" fill-opacity="0.0" d="m17.496063 10.958005l781.00793 0l0 172.91338l-781.00793 0z" fill-rule="evenodd"/><path fill="#000000" d="m86.47644 59.354885l32.9375 0q12.03125 0 19.0625 1.65625q7.03125 1.640625 10.25 5.765629q3.234375 4.109375 3.234375 11.453125l0 15.578125q0 8.109375 -3.484375 12.671875q-3.484375 4.546875 -11.015625 6.453125q-7.53125 1.90625 -20.328125 1.90625l-10.890625 0l0 26.71875l-19.765625 0l0 -82.203125zm32.296875 41.92188q7.734375 0 10.890625 -1.828125q3.171875 -1.84375 3.171875 -6.265625l0 -13.1875q0 -4.046875 -3.03125 -5.3125q-2.921875 -1.265625 -11.28125 -1.265625l-12.28125 0l0 27.859375l12.53125 0zm77.14787 41.546875q-32.5625 0 -32.5625 -19.890625l0 -22.03125q0 -11.53125 7.40625 -16.71875q7.421875 -5.1875 22.875 -5.1875q14.5625 0 21.328125 5.0q6.78125 5.0 6.78125 16.90625l0 14.9375l-39.765625 0l0 5.578125q0 5.328125 3.796875 7.609375q3.796875 2.265625 13.6875 2.265625q9.109375 0 20.515625 -2.65625l0 11.78125q-11.28125 2.40625 -24.0625 2.40625zm8.21875 -37.484375l0 -8.875q0 -3.03125 -2.46875 -4.546875q-2.46875 -1.53125 -8.296875 -1.53125q-6.703125 0 -8.984375 1.515625q-2.40625 1.65625 -2.40625 4.5625l0 8.875l22.15625 0zm54.722733 37.484375q-9.874985 0 -24.187485 -1.90625l0 -12.28125q17.59375 2.65625 24.437485 2.65625q5.828125 0 8.609375 -1.125q2.796875 -1.140625 2.796875 -4.1875l0 -3.796875q0 -3.171875 -1.78125 -4.5q-1.765625 -1.328125 -6.96875 -1.328125l-7.9687347 0q-9.75 0 -15.078125 -3.859375q-5.3125 -3.875 -5.3125 -11.34375l0 -7.46875q0 -7.984375 7.59375 -11.328125q7.59375 -3.359375 22.92186 -3.359375q6.078125 0 21.78128 1.140625l0 11.765625q-19.75003 -1.515625 -22.28128 -1.515625q-7.4687347 0 -9.749985 1.015625q-2.03125 1.140625 -2.03125 4.1875l0 3.28125q0 1.65625 1.640625 2.859375q1.65625 1.203125 4.8124847 1.203125l8.109375 0q22.546906 0 22.546906 14.6875l0 7.71875q0 4.4375 -1.65625 7.734375q-1.640625 3.296875 -4.296875 5.1875q-2.53125 1.78125 -6.53125 2.796875q-3.9844055 1.0 -8.2812805 1.390625q-3.9375 0.375 -9.125 0.375zm74.21332 0q-4.671875 0 -7.84375 -0.390625q-3.171875 -0.375 -6.328125 -1.515625q-3.546875 -1.125 -5.765625 -3.15625q-2.21875 -2.03125 -3.609375 -5.578125q-1.53125 -3.671875 -1.53125 -8.484375l0 -32.046875l-12.40625 0l0 -11.390625l12.40625 0l0 -17.734379l18.5 0l0 17.734379l16.84375 0l0 11.390625l-16.84375 0l0 28.875q0 4.4375 0.75 6.65625q0.765625 2.21875 2.921875 3.171875q2.15625 0.9375 6.59375 0.9375q1.765625 0 6.578125 -0.625l0 11.53125q-5.953125 0.625 -10.265625 0.625zm50.78946 -83.46875l32.9375 0q12.03125 0 19.0625 1.65625q7.03125 1.640625 10.25 5.765629q3.234375 4.109375 3.234375 11.453125l0 15.578125q0 8.109375 -3.484375 12.671875q-3.484375 4.546875 -11.015625 6.453125q-7.53125 1.90625 -20.328125 1.90625l-10.890625 0l0 26.71875l-19.765625 0l0 -82.203125zm32.296875 41.92188q7.734375 0 10.890625 -1.828125q3.171875 -1.84375 3.171875 -6.265625l0 -13.1875q0 -4.046875 -3.03125 -5.3125q-2.921875 -1.265625 -11.28125 -1.265625l-12.28125 0l0 27.859375l12.53125 0zm63.710358 41.546875q-8.609375 0 -12.859375 -1.578125q-4.234375 -1.59375 -5.953125 -5.703125q-1.703125 -4.109375 -1.703125 -12.34375q0 -7.359375 1.828125 -11.53125q1.84375 -4.1875 5.953125 -6.015625q4.125 -1.84375 11.34375 -1.84375l20.78125 0l0 -4.171875q0 -3.921875 -1.078125 -5.828125q-1.078125 -1.90625 -3.9375 -2.65625q-2.84375 -0.765625 -8.546875 -0.765625q-7.84375 0 -21.53125 1.515625l0 -11.640625q10.015625 -1.265625 23.4375 -1.265625q11.78125 0 18.171875 1.78125q6.390625 1.765625 9.171875 6.078125q2.796875 4.296875 2.796875 12.53125l0 42.171875l-18.109375 0l0 -5.578125q-2.15625 3.671875 -5.828125 5.203125q-3.671875 1.640625 -13.9375 1.640625zm7.21875 -11.53125q5.578125 0 7.984375 -0.375q1.78125 -0.25 2.46875 -0.75q0.703125 -0.515625 1.203125 -1.65625q0.515625 -0.890625 0.515625 -2.65625l0 -11.90625l-12.671875 0q-4.3125 0 -6.09375 0.578125q-1.765625 0.5625 -2.40625 2.28125q-0.625 1.703125 -0.625 6.0q0 4.1875 0.625 5.84375q0.640625 1.640625 2.46875 2.140625q1.84375 0.5 6.53125 0.5zm77.51227 11.53125q-4.671875 0 -7.84375 -0.390625q-3.171875 -0.375 -6.328125 -1.515625q-3.546875 -1.125 -5.765625 -3.15625q-2.21875 -2.03125 -3.609375 -5.578125q-1.53125 -3.671875 -1.53125 -8.484375l0 -32.046875l-12.40625 0l0 -11.390625l12.40625 0l0 -17.734379l18.5 0l0 17.734379l16.84375 0l0 11.390625l-16.84375 0l0 28.875q0 4.4375 0.75 6.65625q0.765625 2.21875 2.921875 3.171875q2.15625 0.9375 6.59375 0.9375q1.765625 0 6.578125 -0.625l0 11.53125q-5.953125 0.625 -10.265625 0.625zm20.908447 -62.5625l17.609375 0l0 10.765625q0 -2.921875 2.40625 -5.703125q2.40625 -2.78125 6.140625 -4.546875q3.734375 -1.78125 7.40625 -1.78125l6.578125 0l0 15.3125l-6.328125 0q-7.84375 0 -11.59375 2.40625q-3.734375 2.40625 -3.734375 7.984375l0 36.859375l-18.484375 0l0 -61.296875zm79.65759 62.5625q-5.6875 0 -9.375 -0.390625q-3.671875 -0.375 -7.84375 -1.515625q-4.5625 -1.265625 -7.359375 -3.609375q-2.78125 -2.34375 -4.671875 -6.640625q-1.90625 -4.1875 -1.90625 -10.140625l0 -18.109375q0 -6.078125 1.890625 -10.625q1.90625 -4.5625 4.953125 -7.109375q2.65625 -2.140625 7.03125 -3.59375q4.375 -1.46875 8.546875 -1.84375q4.8125 -0.25 8.734375 -0.25q5.828125 0 9.3125 0.3125q3.484375 0.3125 7.671875 1.578125q4.546875 1.390625 7.390625 3.796875q2.859375 2.40625 4.890625 6.84375q1.890625 4.5625 1.890625 10.890625l0 18.109375q0 5.703125 -1.84375 10.015625q-1.828125 4.296875 -4.734375 6.703125q-2.53125 2.15625 -6.90625 3.484375q-4.359375 1.328125 -8.546875 1.71875q-3.796875 0.375 -9.125 0.375zm0 -11.53125q5.203125 0 7.859375 -0.8125q2.65625 -0.828125 3.734375 -2.59375q1.078125 -1.78125 1.078125 -5.203125l0 -23.171875q0 -5.0625 -2.65625 -7.09375q-2.65625 -2.03125 -10.015625 -2.03125q-7.34375 0 -10.0 2.03125q-2.65625 2.03125 -2.65625 7.09375l0 23.171875q0 3.421875 1.078125 5.203125q1.078125 1.765625 3.734375 2.59375q2.65625 0.8125 7.84375 0.8125zm46.10547 -78.390625l18.5 0l0 88.65625l-18.5 0l0 -88.65625z" fill-rule="nonzero"/><path fill="#000000" fill-opacity="0.0" d="m17.496063 139.91339l781.00793 0l0 56.566925l-781.00793 0z" fill-rule="evenodd"/><path fill="#000000" d="m333.09683 161.85338l-6.140625 0l0 -3.390625l17.015625 0l0 3.390625l-6.09375 0l0 16.5l-4.78125 0l0 -16.5zm20.89679 16.8125q-7.875 0 -7.875 -4.8125l0 -5.34375q0 -2.78125 1.796875 -4.03125q1.796875 -1.265625 5.53125 -1.265625q3.53125 0 5.171875 1.21875q1.640625 1.203125 1.640625 4.078125l0 3.625l-9.625 0l0 1.34375q0 1.28125 0.90625 1.84375q0.921875 0.546875 3.3125 0.546875q2.21875 0 4.96875 -0.640625l0 2.84375q-2.734375 0.59375 -5.828125 0.59375zm2.0 -9.078125l0 -2.140625q0 -0.75 -0.609375 -1.109375q-0.59375 -0.375 -2.0 -0.375q-1.625 0 -2.171875 0.375q-0.578125 0.390625 -0.578125 1.109375l0 2.140625l5.359375 0zm11.886871 9.078125q-2.078125 0 -3.109375 -0.375q-1.03125 -0.390625 -1.4375 -1.390625q-0.40625 -1.0 -0.40625 -2.984375q0 -1.78125 0.4375 -2.796875q0.4375 -1.015625 1.4375 -1.453125q1.0 -0.453125 2.75 -0.453125l5.03125 0l0 -1.0q0 -0.953125 -0.265625 -1.40625q-0.265625 -0.46875 -0.953125 -0.65625q-0.6875 -0.1875 -2.0625 -0.1875q-1.90625 0 -5.21875 0.375l0 -2.828125q2.421875 -0.296875 5.671875 -0.296875q2.859375 0 4.40625 0.4375q1.546875 0.421875 2.21875 1.46875q0.671875 1.03125 0.671875 3.03125l0 10.203125l-4.390625 0l0 -1.34375q-0.515625 0.890625 -1.40625 1.25q-0.890625 0.40625 -3.375 0.40625zm1.75 -2.796875q1.359375 0 1.9375 -0.09375q0.421875 -0.0625 0.59375 -0.171875q0.171875 -0.125 0.296875 -0.40625q0.125 -0.21875 0.125 -0.640625l0 -2.890625l-3.078125 0q-1.03125 0 -1.46875 0.140625q-0.421875 0.140625 -0.578125 0.5625q-0.15625 0.40625 -0.15625 1.453125q0 1.0 0.15625 1.40625q0.15625 0.390625 0.59375 0.515625q0.453125 0.125 1.578125 0.125zm11.352692 -12.359375l4.46875 0l0 1.8125q0.421875 -2.109375 4.390625 -2.109375q2.078125 0 3.140625 0.53125q1.078125 0.53125 1.453125 1.671875q0.359375 -1.171875 1.421875 -1.6875q1.0625 -0.515625 3.203125 -0.515625q1.9375 0 2.96875 0.453125q1.046875 0.4375 1.453125 1.359375q0.421875 0.90625 0.421875 2.4375l0 10.890625l-4.46875 0l0 -10.265625q0 -0.984375 -0.125 -1.390625q-0.125 -0.421875 -0.546875 -0.578125q-0.40625 -0.15625 -1.421875 -0.15625q-1.25 0 -1.796875 0.15625q-0.53125 0.15625 -0.703125 0.578125q-0.15625 0.40625 -0.15625 1.390625l0 10.265625l-4.484375 0l0 -10.265625q0 -0.984375 -0.125 -1.390625q-0.125 -0.421875 -0.546875 -0.578125q-0.40625 -0.15625 -1.40625 -0.15625q-1.265625 0 -1.796875 0.15625q-0.53125 0.15625 -0.703125 0.578125q-0.171875 0.40625 -0.171875 1.390625l0 10.265625l-4.46875 0l0 -14.84375zm34.07776 -5.046875l8.0625 0q2.859375 0 4.40625 0.421875q1.546875 0.40625 2.1875 1.3125q0.640625 0.890625 0.640625 2.515625l0 2.453125q0 0.828125 -0.65625 1.5625q-0.65625 0.734375 -1.546875 1.015625l0 0.15625q1.171875 0.125 2.125 1.0q0.96875 0.875 0.96875 1.9375l0 3.078125q0 2.421875 -1.9375 3.4375q-1.921875 1.0 -5.96875 1.0l-8.28125 0l0 -19.890625zm8.0625 8.09375q1.140625 0 1.6875 -0.1875q0.5625 -0.1875 0.75 -0.59375q0.203125 -0.421875 0.203125 -1.21875l0 -0.984375q0 -0.703125 -0.1875 -1.046875q-0.171875 -0.359375 -0.75 -0.515625q-0.5625 -0.15625 -1.796875 -0.15625l-3.1875 0l0 4.703125l3.28125 0zm0.125 8.390625q1.75 0 2.484375 -0.390625q0.734375 -0.40625 0.734375 -1.296875l0 -1.59375q0 -1.09375 -0.5625 -1.546875q-0.5625 -0.46875 -2.015625 -0.46875l-4.046875 0l0 5.296875l3.40625 0zm11.216797 -18.046875l4.484375 0l0 21.453125l-4.484375 0l0 -21.453125zm12.723206 21.765625q-2.078125 0 -3.109375 -0.375q-1.03125 -0.390625 -1.4375 -1.390625q-0.40625 -1.0 -0.40625 -2.984375q0 -1.78125 0.4375 -2.796875q0.4375 -1.015625 1.4375 -1.453125q1.0 -0.453125 2.75 -0.453125l5.03125 0l0 -1.0q0 -0.953125 -0.265625 -1.40625q-0.265625 -0.46875 -0.953125 -0.65625q-0.6875 -0.1875 -2.0625 -0.1875q-1.90625 0 -5.21875 0.375l0 -2.828125q2.421875 -0.296875 5.671875 -0.296875q2.859375 0 4.40625 0.4375q1.546875 0.421875 2.21875 1.46875q0.671875 1.03125 0.671875 3.03125l0 10.203125l-4.390625 0l0 -1.34375q-0.515625 0.890625 -1.40625 1.25q-0.890625 0.40625 -3.375 0.40625zm1.75 -2.796875q1.359375 0 1.9375 -0.09375q0.421875 -0.0625 0.59375 -0.171875q0.171875 -0.125 0.296875 -0.40625q0.125 -0.21875 0.125 -0.640625l0 -2.890625l-3.078125 0q-1.03125 0 -1.46875 0.140625q-0.421875 0.140625 -0.578125 0.5625q-0.15625 0.40625 -0.15625 1.453125q0 1.0 0.15625 1.40625q0.15625 0.390625 0.59375 0.515625q0.453125 0.125 1.578125 0.125zm18.587036 2.796875q-1.171875 0 -1.84375 -0.046875q-0.671875 -0.046875 -1.65625 -0.171875q-0.984375 -0.125 -1.609375 -0.421875q-0.625 -0.3125 -1.296875 -0.921875q-1.265625 -1.046875 -1.265625 -3.5625l0 -4.9375q0 -2.015625 0.921875 -3.375q0.34375 -0.484375 1.0 -0.890625q0.65625 -0.421875 1.328125 -0.671875q0.546875 -0.1875 1.46875 -0.296875q0.921875 -0.125 1.625 -0.15625l1.625 0q1.71875 0 4.515625 0.546875l0 2.9375q-3.15625 -0.734375 -4.84375 -0.734375q-3.109375 0 -3.109375 2.09375l0 5.453125q0 2.359375 3.40625 2.359375q1.65625 0 4.75 -0.671875l0 2.9375q-2.78125 0.53125 -5.015625 0.53125zm7.541992 -21.765625l4.46875 0l0 21.453125l-4.46875 0l0 -21.453125zm4.65625 13.109375l4.875 -6.5l5.109375 0l-5.140625 6.46875l5.578125 8.375l-5.0625 0l-5.359375 -8.34375z" fill-rule="nonzero"/></g></svg>