<svg width="64" height="68" xmlns="http://www.w3.org/2000/svg" xmlns:xlink="http://www.w3.org/1999/xlink" xml:space="preserve" overflow="hidden"><defs><clipPath id="clip0"><rect x="324" y="252" width="64" height="68"/></clipPath></defs><g clip-path="url(#clip0)" transform="translate(-324 -252)"><path d="M63.5034 29.7672C63.5034 38.5352 56.3955 45.6431 47.6276 45.6431 38.8596 45.6431 31.7517 38.5352 31.7517 29.7672 31.7517 20.9992 38.8596 13.8914 47.6276 13.8914 56.3955 13.8914 63.5034 20.9992 63.5034 29.7672Z" transform="matrix(1 0 0 1.00781 308.445 238.236)"/><path d="M79.3793 81.3637 79.3793 65.4879C79.3793 63.1065 78.1886 60.7251 76.2041 59.1375 71.8382 55.5655 66.2817 53.1841 60.7251 51.5965 56.7562 50.4058 52.3903 49.612 47.6276 49.612 43.2617 49.612 38.8958 50.4058 34.53 51.5965 28.9734 53.1841 23.4169 55.9624 19.051 59.1375 17.0665 60.7251 15.8759 63.1065 15.8759 65.4879L15.8759 81.3637 79.3793 81.3637Z" transform="matrix(1 0 0 1.00781 308.445 238.236)"/></g></svg>